<svg xmlns="http://www.w3.org/2000/svg" viewBox="0 0 150 87.693"><path d="M14.658 73.163h3.002c1.516 0 2.255-.755 2.255-2.5V53.366c0-2.119-.74-2.875-2.753-2.875h-2.504v22.673m0-36.96h2.635c1.883 0 2.622-.87 2.622-3.008V16.908a2.108 2.108 0 00-2.373-2.369h-2.884zM0 0h19.672c12.405 0 15.155 4.767 15.155 13.786v19.166c0 5.013-1.622 8.02-5.017 10.146 3.761 2.252 5.404 5.382 5.404 10.531V72.54c0 9.015-2.765 15.153-14.785 15.153H0zm56.024 38.458c.244 4.266.5 17.677.5 22.929v26.306H42.619V0h14.157l10.53 49.368c-.256-4.516-.627-17.66-.627-22.932V0h13.91v87.693H66.558L56.024 38.458m47.559 34.705h13.527v14.53H88.176V0h28.934v14.539h-13.527v21.664h11.778V50.49h-11.778v22.673" fill="#fff"/></svg>