<svg data-name="Layer 1" xmlns="http://www.w3.org/2000/svg" viewBox="0 0 428.652 87.693"><path d="M171.21 41.78h1.755c.758 0 1.065-.352 1.065-1.106v-8.13c0-.851-.418-1.2-1.16-1.2h-1.659V41.78m-5.458-15.594h7.71c4.856 0 5.918 2.372 5.918 6.006v8.778c0 3.03-.504 4.794-2.771 5.612l4.532 14.933h-5.814l-3.828-14.74h-.289v14.74h-5.458zm24.132 30.179h5.697v5.151h-11.149V26.187h11.149v5.157h-5.697v9.78h4.988v5.045h-4.988v10.196m15.479-6.762h2.265l-.352-5.192c-.303-4.243-.61-8.585-.758-12.375h-.059a580.549 580.549 0 01-.751 12.375l-.345 5.192m-2.38-23.416h7.013l4.14 35.33h-5.502l-.494-6.86h-3.288l-.499 6.86h-5.509zm14.819 0h5.447v30.178h4.538v5.151h-9.985V26.187m27.405 30.178h5.702v5.151h-11.151V26.187h11.151v5.157h-5.702v9.78h4.996v5.045h-4.996v10.196m14.906-.805c0 .96.412 1.563 1.42 1.563 1.011 0 1.405-.604 1.405-1.563v-3.533c0-9.486-8.271-6.1-8.271-16.907v-3.084c0-3.625 1.766-6.362 6.866-6.362 5.05 0 6.865 2.737 6.865 6.362v4.75h-5.46v-4.7c0-.906-.394-1.506-1.405-1.506-1.008 0-1.42.6-1.42 1.506v2.884c0 8.172 8.285 4.744 8.285 16.956v3.735c0 3.63-1.815 6.361-6.865 6.361-5.1 0-6.866-2.732-6.866-6.36V50.41h5.446v5.15m20.98 5.956h-5.453V31.344h-3.835v-5.157h13.127v5.157h-3.839v30.172m11.454-11.913h2.272l-.35-5.192c-.312-4.243-.616-8.585-.763-12.375h-.05a536.005 536.005 0 01-.767 12.375l-.342 5.192m-2.374-23.416h7.016l4.138 35.33h-5.5l-.509-6.86h-3.28l-.5 6.86h-5.509zm21.563 35.329h-5.446V31.344h-3.835v-5.157h13.13v5.157h-3.849v30.172m12.934-5.151h5.687v5.151h-11.15V26.187h11.15v5.157h-5.687v9.78h4.989v5.045h-4.989v10.196m25.027-15.241h6.867V55.56c0 3.69-1.517 6.462-6.867 6.462-5.343 0-6.861-2.773-6.861-6.462V32.138c0-3.685 1.518-6.464 6.861-6.464 5.35 0 6.867 2.779 6.867 6.464v4.646h-5.442v-4.748a1.421 1.421 0 10-2.842 0v23.475c0 1.057.464 1.612 1.417 1.612.956 0 1.425-.555 1.425-1.612v-9.342h-1.425v-5.045m16.594.656h1.769c.753 0 1.054-.352 1.054-1.106v-8.13c0-.851-.398-1.2-1.165-1.2h-1.658V41.78m-5.455-15.594h7.725c4.848 0 5.903 2.372 5.903 6.006v8.778c0 3.03-.503 4.794-2.77 5.612l4.537 14.933h-5.8l-3.835-14.74h-.306v14.74h-5.455zm26.3 29.324V32.139a1.422 1.422 0 10-2.832 0v23.373c0 1.057.452 1.612 1.42 1.612.945 0 1.412-.555 1.412-1.612m-8.285.049V32.194c0-3.692 1.512-6.52 6.874-6.52 5.347 0 6.852 2.828 6.852 6.52V55.56c0 3.69-1.505 6.462-6.852 6.462-5.362 0-6.874-2.773-6.874-6.462zm23.453-29.374V55.62c0 1.053.46 1.502 1.413 1.502.954 0 1.41-.449 1.41-1.502V26.187h5.456V55.66c0 3.686-1.512 6.36-6.866 6.36-5.348 0-6.868-2.674-6.868-6.36V26.187h5.455m18.161 15.593h1.771c.758 0 1.063-.352 1.063-1.106v-8.13c0-.851-.411-1.2-1.16-1.2h-1.674V41.78m-5.446-15.594h7.72c4.845 0 5.912 2.372 5.912 6.006v8.682c0 3.882-1.264 5.955-6.063 5.955h-2.122v14.686h-5.447zM14.658 73.163h3.002c1.516 0 2.255-.755 2.255-2.5V53.366c0-2.119-.74-2.875-2.753-2.875h-2.504v22.673m0-36.96h2.635c1.883 0 2.622-.87 2.622-3.008V16.908a2.108 2.108 0 00-2.373-2.369h-2.884zM0 0h19.672c12.405 0 15.155 4.767 15.155 13.786v19.166c0 5.013-1.622 8.02-5.017 10.146 3.761 2.252 5.404 5.382 5.404 10.531V72.54c0 9.015-2.765 15.153-14.785 15.153H0zm56.024 38.458c.244 4.266.5 17.677.5 22.929v26.306H42.619V0h14.157l10.53 49.368c-.256-4.516-.627-17.66-.627-22.932V0h13.91v87.693H66.558L56.024 38.458m47.559 34.705h13.527v14.53H88.176V0h28.934v14.539h-13.527v21.664h11.778V50.49h-11.778v22.673m36.624-70.395h3.74v82.169h-3.74z" fill="#fff"/></svg>