<svg id="Layer_1" data-name="Layer 1" xmlns="http://www.w3.org/2000/svg" viewBox="0 0 428.6517 87.6934"><path d="M171.2108,41.7808h1.7538c.7579,0,1.0653-.3527,1.0653-1.1067v-8.13c0-.8515-.4181-1.2005-1.16-1.2005h-1.6586V41.7808m-5.4584-15.5942h7.71c4.8559,0,5.918,2.3725,5.918,6.0063v8.7785c0,3.03-.5041,4.7937-2.7714,5.6114l4.5329,14.9333h-5.8149L171.5,46.7764h-.289v14.74h-5.4584Z" style="fill:#fff"/><polyline points="189.885 56.365 195.582 56.365 195.582 61.516 184.433 61.516 184.433 26.187 195.582 26.187 195.582 31.344 189.885 31.344 189.885 41.124 194.873 41.124 194.873 46.169 189.885 46.169 189.885 56.365" style="fill:#fff"/><path d="M205.3643,49.6032h2.2643l-.352-5.1924c-.3028-4.2432-.61-8.5849-.7579-12.3746H206.46c-.1951,3.8873-.4519,8.222-.7515,12.3746l-.3445,5.1924m-2.3794-23.4166h7.0124l4.14,35.33h-5.5016l-.4948-6.8587h-3.288l-.4981,6.8587h-5.509Z" style="fill:#fff"/><polyline points="217.803 26.187 223.25 26.187 223.25 56.365 227.788 56.365 227.788 61.516 217.803 61.516 217.803 26.187" style="fill:#fff"/><polyline points="245.208 56.365 250.91 56.365 250.91 61.516 239.759 61.516 239.759 26.187 250.91 26.187 250.91 31.344 245.208 31.344 245.208 41.124 250.204 41.124 250.204 46.169 245.208 46.169 245.208 56.365" style="fill:#fff"/><path d="M260.114,55.56c0,.9592.4119,1.5633,1.42,1.5633,1.0113,0,1.4048-.6041,1.4048-1.5633V52.0274c0-9.4865-8.2711-6.1009-8.2711-16.9077V32.0362c0-3.6253,1.766-6.3623,6.8663-6.3623,5.05,0,6.8648,2.737,6.8648,6.3623v4.749h-5.46V32.0861c0-.9062-.3935-1.5064-1.4048-1.5064-1.0085,0-1.42.6-1.42,1.5064V34.97c0,8.1721,8.2852,4.7443,8.2852,16.9561v3.7353c0,3.6291-1.8153,6.3606-6.8648,6.3606-5.1,0-6.8663-2.7315-6.8663-6.3606V50.41h5.4459V55.56" style="fill:#fff"/><polyline points="281.094 61.516 275.641 61.516 275.641 31.344 271.806 31.344 271.806 26.187 284.933 26.187 284.933 31.344 281.094 31.344 281.094 61.516" style="fill:#fff"/><path d="M292.5476,49.6032h2.272l-.349-5.1924c-.3121-4.2432-.6164-8.5849-.764-12.3746h-.0491c-.2029,3.8873-.4519,8.222-.767,12.3746l-.3429,5.1924m-2.3733-23.4166H297.19l4.138,35.33h-5.5l-.5089-6.8587h-3.28l-.4994,6.8587H286.03Z" style="fill:#fff"/><polyline points="311.737 61.516 306.291 61.516 306.291 31.344 302.456 31.344 302.456 26.187 315.586 26.187 315.586 31.344 311.737 31.344 311.737 61.516" style="fill:#fff"/><polyline points="324.671 56.365 330.358 56.365 330.358 61.516 319.208 61.516 319.208 26.187 330.358 26.187 330.358 31.344 324.671 31.344 324.671 41.124 329.66 41.124 329.66 46.169 324.671 46.169 324.671 56.365" style="fill:#fff"/><path d="M349.6983,41.1244h6.8664V55.56c0,3.6892-1.5172,6.4621-6.8664,6.4621-5.343,0-6.8618-2.7729-6.8618-6.4621V32.1383c0-3.6853,1.5188-6.4644,6.8618-6.4644,5.3492,0,6.8664,2.7791,6.8664,6.4644v4.6461h-5.4414V32.0362a1.4215,1.4215,0,1,0-2.8422,0V55.5106c0,1.0574.4642,1.6124,1.4172,1.6124.9561,0,1.425-.555,1.425-1.6124V46.1693h-1.425V41.1244" style="fill:#fff"/><path d="M366.2917,41.7808h1.7692c.7532,0,1.0545-.3527,1.0545-1.1067v-8.13c0-.8515-.3981-1.2005-1.1651-1.2005h-1.6586V41.7808m-5.4552-15.5942h7.7256c4.848,0,5.9026,2.3725,5.9026,6.0063v8.7785c0,3.03-.5028,4.7937-2.77,5.6114l4.5376,14.9333h-5.8l-3.8352-14.74h-.3058v14.74h-5.4552Z" style="fill:#fff"/><path d="M387.1367,55.5106V32.1383a1.4223,1.4223,0,1,0-2.8314,0V55.5106c0,1.0574.452,1.6124,1.4205,1.6124.9437,0,1.4109-.555,1.4109-1.6124m-8.285.0491V32.1937c0-3.6914,1.5124-6.52,6.8741-6.52,5.3475,0,6.8525,2.8284,6.8525,6.52V55.56c0,3.6892-1.505,6.4621-6.8525,6.4621C380.3641,62.0218,378.8517,59.2489,378.8517,55.56Z" style="fill:#fff"/><path d="M402.3053,26.1866V55.6212c0,1.0529.46,1.5018,1.4125,1.5018.9547,0,1.4111-.4489,1.4111-1.5018V26.1866h5.4553V55.6612c0,3.6861-1.5125,6.3606-6.8664,6.3606-5.3476,0-6.8679-2.6745-6.8679-6.3606V26.1866h5.4554" style="fill:#fff"/><path d="M420.4664,41.7808h1.7708c.7579,0,1.0623-.3527,1.0623-1.1067v-8.13c0-.8515-.4105-1.2005-1.1591-1.2005h-1.674V41.7808M415.02,26.1866H422.74c4.845,0,5.9118,2.3725,5.9118,6.0063v8.6825c0,3.8813-1.2635,5.9549-6.0624,5.9549h-2.1229V61.5161H415.02Z" style="fill:#fff"/><path d="M14.6581,73.163H17.66c1.5156,0,2.2551-.7548,2.2551-2.4994V53.3647c0-2.1182-.7395-2.8745-2.7531-2.8745h-2.504V73.163m0-36.96h2.6346c1.883,0,2.6225-.8709,2.6225-3.0083V16.9077a2.1079,2.1079,0,0,0-2.3735-2.3687H14.6581ZM0,0H19.6723C32.0769,0,34.8269,4.7674,34.8269,13.7864V32.9522c0,5.0127-1.6217,8.0192-5.0172,10.1459C33.571,45.35,35.2143,48.48,35.2143,53.629V72.54c0,9.0153-2.7653,15.153-14.7858,15.153H0Z" style="fill:#fff"/><path d="M56.024,38.4576c.2445,4.2662.5,17.6769.5,22.9294V87.6934H42.6187V0H56.7756l10.531,49.3681c-.2567-4.5161-.6272-17.6609-.6272-22.9325V0H80.5889V87.6934H66.558L56.024,38.4576" style="fill:#fff"/><polyline points="103.583 73.163 117.11 73.163 117.11 87.693 88.176 87.693 88.176 0 117.11 0 117.11 14.539 103.583 14.539 103.583 36.203 115.361 36.203 115.361 50.49 103.583 50.49 103.583 73.163" style="fill:#fff"/><rect x="140.2067" y="2.7682" width="3.7399" height="82.1692" style="fill:#fff"/></svg>