<svg xmlns="http://www.w3.org/2000/svg" viewBox="0 0 150 87.6934"><path d="M14.6581,73.163H17.66c1.5156,0,2.2551-.7548,2.2551-2.4994V53.3647c0-2.1182-.7395-2.8745-2.7531-2.8745h-2.504V73.163m0-36.96h2.6346c1.883,0,2.6225-.8709,2.6225-3.0083V16.9077a2.1079,2.1079,0,0,0-2.3735-2.3687H14.6581ZM0,0H19.6723C32.0769,0,34.8269,4.7674,34.8269,13.7864V32.9522c0,5.0127-1.6217,8.0192-5.0172,10.1459C33.571,45.35,35.2143,48.48,35.2143,53.629V72.54c0,9.0153-2.7653,15.153-14.7858,15.153H0Z" style="fill:#fff"/><path d="M56.024,38.4576c.2445,4.2662.5,17.6769.5,22.9294V87.6934H42.6187V0H56.7756l10.531,49.3681c-.2567-4.5161-.6272-17.6609-.6272-22.9325V0H80.5889V87.6934H66.558L56.024,38.4576" style="fill:#fff"/><polyline points="103.583 73.163 117.11 73.163 117.11 87.693 88.176 87.693 88.176 0 117.11 0 117.11 14.539 103.583 14.539 103.583 36.203 115.361 36.203 115.361 50.49 103.583 50.49 103.583 73.163" style="fill:#fff"/></svg>